<svg version="1.1" width="101" height="94" viewBox="-1 -1 101 94" xmlns="http://www.w3.org/2000/svg" xmlns:xlink="http://www.w3.org/1999/xlink">
  <!-- Exported by Scratch - http://scratch.mit.edu/ -->
  <path id="Back_Leg" fill="#99B2FF" stroke="#000000" d="M 38.988 80.967 C 38.988 80.967 30.156 87.168 21.918 89.379 L 22.004 89.594 C 23.251 91.418 27.873 97.092 21.670 99.090 C 16.337 100.808 6.550 85.986 10.849 83.189 C 13.475 81.476 15.741 82.937 15.741 82.937 C 15.741 82.937 19.216 81.868 21.742 80.592 C 26.046 78.430 27.526 77.139 27.526 77.139 C 27.526 77.139 31.711 72.832 34.382 73.002 C 37.051 73.172 42.440 77.715 38.988 80.967 Z M 19.646 90.090 L 21.917 89.379 " transform="matrix(0.9988927245140076, 0, 0, 0.9988927245140076, 5.8, -6)"/>
  <path id="Tail_1_" fill="#99B2FF" stroke="#000000" d="M 23.295 73.217 C 20.880 72.766 18.380 69.688 15.553 69.713 C 9.529 69.771 3.049 70.914 -2.300 74 C -4.158 75.038 -5.536 79.804 -3.300 80.500 C 1.844 82.047 7.259 78.316 12.858 77.994 C 16.570 77.781 20.856 79.389 23.949 79.306 C 24.761 79.280 31.667 78.651 34.028 75.231 C 36.389 71.812 34.747 70.960 33.938 70.487 C 33.128 70.016 26.711 73.855 23.295 73.217 Z " transform="matrix(0.9988927245140076, 0, 0, 0.9988927245140076, 5.8, -6)"/>
  <path id="Tail_Tip" fill="#FFFFFF" d="M 5.150 59.400 C 4.322 59.000 3.026 58.635 2.400 59.250 C 1.643 60.359 1.807 62.093 2.050 63.250 C 2.671 66.170 4.172 71.333 5.050 71.700 C 5.870 72.035 4.713 66.706 5.850 64.650 C 6.671 63.474 10.232 64.563 10.034 63.473 C 9.729 61.811 7.024 60.337 5.150 59.400 Z " transform="matrix(0.031594712287187576, -0.9983929395675659, 0.9983929395675659, 0.031594712287187576, -57.25, 74.4)"/>
  <path id="R_Arm" fill="#99B2FF" stroke="#000000" d="M 52.940 69.096 C 52.940 69.096 54.174 69.262 57.684 72.773 C 61.193 76.282 63.709 74.933 66.595 73.497 C 69.472 72.055 77.131 67.370 73.084 63.680 C 69.034 59.992 66.877 64.826 63.368 66.085 C 59.857 67.345 58.308 63.598 56.512 61.798 C 55.922 61.204 55.324 60.700 54.783 60.292 C 54.783 60.292 53.811 59.534 52.878 63.083 C 51.943 66.624 50.933 67.627 52.940 69.096 Z " transform="matrix(0.9988927245140076, 0, 0, 0.9988927245140076, 5.8, -6)"/>
  <g id="Front_Leg_x2F_Body_1_">
    <path id="Front_Leg_x2F_Body" fill="#99B2FF" stroke="#000000" d="M 47.524 76.224 C 48.712 75.312 49.920 73.823 51.475 71.510 C 52.771 69.584 54.174 65.933 54.174 65.933 C 55.049 63.412 56.109 59.357 52.273 58.637 C 50.720 58.346 48.194 58.539 44.603 57.861 C 41.010 57.180 37.805 55.339 35.086 60.094 C 32.367 64.851 25.495 68.365 34.029 76.656 C 34.029 76.656 38.930 80.498 44.794 86.295 C 49.626 91.069 56.838 96.898 56.838 96.898 C 56.838 96.898 75.811 99.086 76.372 96.204 C 78.295 86.415 61.597 89.294 61.597 89.294 C 61.597 89.294 56.993 85.361 54.870 83.499 C 51.393 80.441 43.745 72.728 43.745 72.728 " transform="matrix(0.9988927245140076, 0, 0, 0.9988927245140076, 5.8, -6)"/>
    <path id="Belly" fill="#FFFFFF" d="M 49.740 64.551 C 44.800 61.895 42.526 64.536 41 66.073 C 38.355 68.727 44.442 72.683 44.442 72.683 L 47.504 75.772 C 50.503 72.276 52.083 69.898 52.796 67.838 C 52.654 66.897 51.918 65.725 49.740 64.551 Z " transform="matrix(0.9988927245140076, 0, 0, 0.9988927245140076, 5.8, -6)"/>
  </g>
  <path id="L_Arm" fill="#99B2FF" stroke="#000000" d="M 30.697 67.430 C 31.446 66.859 33.587 65.228 35.551 63.773 C 37.979 61.974 41.668 57.924 36.628 56.127 C 31.588 54.326 29.120 57.731 25.108 61.072 C 22.949 62.873 19.800 63.770 20.789 67.281 C 21.782 70.793 25.651 80.688 32.578 77.451 C 39.508 74.213 30.779 68.270 29.518 66.295 " transform="matrix(0.9988927245140076, 0, 0, 0.9988927245140076, 5.8, -6)"/>
  <g id="Head">
    <g id="Head_1_">
      <path id="Head_Fill" fill="#99B2FF" stroke="#000000" d="M 86.452 37.457 C 84.980 31.010 77.561 29.878 77.561 29.878 C 77.561 29.878 77.737 24.527 74.933 19.531 C 73.077 16.224 67.152 14.452 66.582 11.489 L 73.150 10.950 L 56.298 7.259 L 53.444 8.364 C 52.493 8.731 48.391 10.604 45.700 10.700 C 44.945 10.723 46.310 8.954 45.500 8.750 C 41.764 7.866 37.690 7.039 34.200 7.950 L 22.650 14.500 L 19.100 20.850 L 27.087 20.559 C 29.735 20.251 16.534 33.361 23.610 44.779 C 26.929 50.139 33.769 54.903 39.209 56.726 C 43.271 58.086 50.042 58.463 53.209 58.463 C 55.855 58.463 60.977 57.922 63.529 57.484 C 66.550 56.965 70.008 55.855 73.584 54.376 C 83.081 50.442 87.922 43.904 86.452 37.457 Z M 39.771 12.212 M 53.688 8.212 C 53.688 8.212 57.650 9.900 57.650 9.900 " transform="matrix(0.9988927245140076, 0, 0, 0.9988927245140076, 5.8, -6)"/>
      <path id="Muzzle" fill="#FFFFFF" d="M 77.146 30.129 L 74.265 27.022 L 65.152 29.683 C 65.152 29.693 65.147 31.302 63.732 32.616 C 63.086 33.216 62.149 33.754 60.784 34.051 C 56.413 35.002 49.572 31.774 49.572 31.774 L 41.788 35.191 C 41.788 35.191 37.044 35.713 34.544 38.147 C 33.711 38.959 33.127 39.982 33.052 41.270 C 32.559 49.668 41.732 54.522 48.135 56.872 C 49.913 57.524 50.523 57.723 51.607 58.011 C 51.607 58.011 59.031 57.816 61.788 57.423 C 64.820 56.991 69.366 55.665 72.942 54.187 C 82.440 50.254 87.543 44.163 86.071 37.716 C 84.597 31.265 77.146 30.129 77.146 30.129 Z " transform="matrix(0.9988927245140076, 0, 0, 0.9988927245140076, 5.8, -6)"/>
    </g>
    <g id="L_Eye">
      <path id="Eyeball_1_" fill="#FFFFFF" stroke="#000000" d="M 48.638 22.831 C 51.564 27.311 51.256 32.693 47.956 34.846 C 44.653 37.005 39.604 35.118 36.681 30.638 C 33.753 26.158 34.057 20.778 37.359 18.621 C 40.661 16.465 45.709 18.349 48.638 22.831 " transform="matrix(0.9988927245140076, 0, 0, 0.9988927245140076, 5.8, -6)"/>
      <path id="Pupil_1_" d="M 46.850 28.719 C 46.850 29.800 46.047 30.676 45.049 30.676 C 44.057 30.676 43.245 29.798 43.245 28.719 C 43.245 27.639 44.057 26.762 45.049 26.762 C 46.045 26.762 46.850 27.639 46.850 28.719 " transform="matrix(0.9988927245140076, 0, 0, 0.9988927245140076, 5.8, -6)"/>
    </g>
    <g id="R_Eye">
      <path id="Eyeball" fill="#FFFFFF" stroke="#000000" d="M 72.361 19.750 C 75.286 24.229 75.644 29.169 72.853 30.993 C 70.060 32.818 65.672 30.441 62.749 25.959 C 59.816 21.479 59.670 16.825 62.463 15 C 65.250 13.177 69.434 15.268 72.361 19.750 " transform="matrix(0.9988927245140076, 0, 0, 0.9988927245140076, 5.8, -6)"/>
      <path id="Pupil" d="M 71.860 26.734 C 71.860 27.814 71.058 28.690 70.060 28.690 C 69.067 28.690 68.256 27.813 68.256 26.734 C 68.256 25.654 69.067 24.776 70.060 24.776 C 71.058 24.776 71.860 25.654 71.860 26.734 " transform="matrix(0.9988927245140076, 0, 0, 0.9988927245140076, 5.8, -6)"/>
    </g>
    <path id="Nose" fill="#000000" stroke="#000000" d="M 60.536 32.138 C 61.554 32.288 62.792 33.344 63.200 34.400 C 63.538 35.276 63.286 36.846 62.245 37.052 C 61.092 37.250 59.699 35.964 59.250 34.800 C 58.928 33.966 59.579 32.488 60.450 32.400 Z " transform="matrix(0.9988927245140076, 0, 0, 0.9988927245140076, 5.8, -6)"/>
    <path id="Whisker_3_" d="M 22.750 36.602 C 22.727 36.585 20.368 34.842 16.748 33.240 C 12.736 31.463 10.485 30.980 10.464 30.975 L 10.709 29.800 C 10.804 29.820 13.090 30.306 17.234 32.142 C 20.985 33.803 23.367 35.566 23.466 35.640 L 22.750 36.602 L 22.750 36.602 Z " transform="matrix(0.9988927245140076, 0, 0, 0.9988927245140076, 5.8, -6)"/>
    <path id="Whisker_2_" d="M 16.628 41.254 C 14.593 41.254 11.536 40.978 11.390 40.965 L 11.497 39.770 C 11.538 39.774 15.585 40.137 17.384 40.036 C 19.204 39.932 22.796 39.458 22.831 39.453 L 22.988 40.642 C 22.840 40.662 19.318 41.126 17.451 41.233 C 17.209 41.248 16.929 41.254 16.628 41.254 L 16.628 41.254 Z " transform="matrix(0.9988927245140076, 0, 0, 0.9988927245140076, 5.8, -6)"/>
    <path id="Whisker_1_" d="M 82.524 35.475 L 82.330 34.290 C 82.376 34.283 86.854 33.546 89.091 32.767 C 91.664 31.873 93.417 30.352 93.436 30.337 L 94.227 31.239 C 94.149 31.307 92.279 32.930 89.485 33.900 C 87.151 34.714 82.711 35.444 82.524 35.475 L 82.524 35.475 Z " transform="matrix(0.9988927245140076, 0, 0, 0.9988927245140076, 5.8, -6)"/>
    <path id="Whisker" d="M 91.551 42.979 C 90.739 42.979 89.646 42.944 88.362 42.816 C 85.504 42.530 82.778 41.437 82.663 41.390 L 83.113 40.278 C 83.140 40.289 85.799 41.353 88.481 41.622 C 91.153 41.889 92.999 41.733 93.016 41.732 L 93.120 42.927 C 93.077 42.931 92.508 42.979 91.551 42.979 L 91.551 42.979 Z " transform="matrix(0.9988927245140076, 0, 0, 0.9988927245140076, 5.8, -6)"/>
    <path id="Mouth" fill="none" stroke="#231F20" stroke-width="1.2" d="M 47.545 39.447 C 47.545 39.447 57.892 42.501 61.762 43.343 C 65.629 44.185 72.613 45.027 72.613 45.027 C 72.613 45.027 64.624 55.272 55.286 52.672 C 45.947 50.075 46.115 44.187 47.545 39.447 Z " transform="matrix(0.9988927245140076, 0, 0, 0.9988927245140076, 5.8, -6)"/>
  </g>
  <path id="ID0.11377183720469475" fill="none" stroke="#000000" stroke-width="2" stroke-linecap="round" d="M 195 132 L 195.300 132.300 " transform="matrix(0.39721429347991943, 0, 0, 0.39721429347991943, -42.3, -21.75)"/>
  <path id="ID0.10649160202592611" fill="none" stroke="#000000" stroke-width="2" stroke-linecap="round" d="M 207 148 L 207.300 148.300 " transform="matrix(0.39721429347991943, 0, 0, 0.39721429347991943, -42.3, -21.75)"/>
  <path id="ID0.45877461414784193" fill="none" stroke="#000000" stroke-width="2" stroke-linecap="round" d="M 222 136 L 222.300 136.300 " transform="matrix(0.39721429347991943, 0, 0, 0.39721429347991943, -42.3, -21.75)"/>
  <path id="ID0.7787012169137597" fill="none" stroke="#000000" stroke-width="2" stroke-linecap="round" d="M 225 142 L 225.300 142.300 " transform="matrix(0.39721429347991943, 0, 0, 0.39721429347991943, -42.3, -21.75)"/>
  <path id="ID0.9484777934849262" fill="none" stroke="#000000" stroke-width="2" stroke-linecap="round" d="M 293 135 L 293.300 135.300 " transform="matrix(0.39721429347991943, 0, 0, 0.39721429347991943, -42.3, -21.75)"/>
  <path id="ID0.9130438398569822" fill="none" stroke="#000000" stroke-width="2" stroke-linecap="round" d="M 309 150 L 309.300 150.300 " transform="matrix(0.39721429347991943, 0, 0, 0.39721429347991943, -42.3, -21.75)"/>
  <path id="ID0.40427076537162066" fill="none" stroke="#000000" stroke-width="2" stroke-linecap="round" d="M 316 125 L 316.300 125.300 " transform="matrix(0.39721429347991943, 0, 0, 0.39721429347991943, -42.3, -21.75)"/>
  <path id="ID0.28987644566223025" fill="none" stroke="#000000" stroke-width="2" stroke-linecap="round" d="M 324 142 L 324.300 142.300 " transform="matrix(0.39721429347991943, 0, 0, 0.39721429347991943, -42.3, -21.75)"/>
</svg>